<mxfile host="app.diagrams.net" modified="2022-03-09T06:48:48.545Z" agent="5.0 (Windows NT 10.0; Win64; x64) AppleWebKit/537.36 (KHTML, like Gecko) Chrome/98.0.4758.82 Safari/537.36" etag="wkKWSd7gFZkeaIxsuZ9f" version="16.5.6" type="github">
  <diagram id="60q7-NIE08-aZMrnNN0B" name="Page-1">
    <mxGraphModel dx="1422" dy="705" grid="1" gridSize="10" guides="1" tooltips="1" connect="1" arrows="1" fold="1" page="1" pageScale="1" pageWidth="600" pageHeight="450" math="0" shadow="0">
      <root>
        <mxCell id="0" />
        <mxCell id="1" parent="0" />
        <mxCell id="sZKfOWtP_SYuCD7-VU7d-4" value="&lt;font style=&quot;font-size: 21px&quot;&gt;&lt;b&gt;Envoy&lt;/b&gt;&lt;/font&gt;" style="rounded=1;whiteSpace=wrap;html=1;strokeColor=#000000;verticalAlign=top;" vertex="1" parent="1">
          <mxGeometry x="80" y="20" width="510" height="330" as="geometry" />
        </mxCell>
        <mxCell id="sZKfOWtP_SYuCD7-VU7d-10" style="edgeStyle=orthogonalEdgeStyle;rounded=0;orthogonalLoop=1;jettySize=auto;html=1;exitX=1;exitY=0.5;exitDx=0;exitDy=0;" edge="1" parent="1" source="sZKfOWtP_SYuCD7-VU7d-5" target="sZKfOWtP_SYuCD7-VU7d-7">
          <mxGeometry relative="1" as="geometry" />
        </mxCell>
        <mxCell id="sZKfOWtP_SYuCD7-VU7d-5" value="" style="rounded=0;whiteSpace=wrap;html=1;strokeColor=#d79b00;fillColor=#ffe6cc;" vertex="1" parent="1">
          <mxGeometry x="120" y="90" width="70" height="50" as="geometry" />
        </mxCell>
        <mxCell id="sZKfOWtP_SYuCD7-VU7d-12" style="edgeStyle=orthogonalEdgeStyle;rounded=0;orthogonalLoop=1;jettySize=auto;html=1;exitX=1;exitY=0.5;exitDx=0;exitDy=0;" edge="1" parent="1" source="sZKfOWtP_SYuCD7-VU7d-7">
          <mxGeometry relative="1" as="geometry">
            <mxPoint x="300" y="115" as="targetPoint" />
          </mxGeometry>
        </mxCell>
        <mxCell id="sZKfOWtP_SYuCD7-VU7d-7" value="" style="rounded=0;whiteSpace=wrap;html=1;strokeColor=#d79b00;fillColor=#ffe6cc;" vertex="1" parent="1">
          <mxGeometry x="210" y="90" width="70" height="50" as="geometry" />
        </mxCell>
        <mxCell id="sZKfOWtP_SYuCD7-VU7d-8" value="" style="curved=1;endArrow=classic;html=1;rounded=0;entryX=0;entryY=0.5;entryDx=0;entryDy=0;strokeColor=#FF0000;strokeWidth=3;" edge="1" parent="1" target="sZKfOWtP_SYuCD7-VU7d-5">
          <mxGeometry width="50" height="50" relative="1" as="geometry">
            <mxPoint x="10" y="110" as="sourcePoint" />
            <mxPoint x="50" y="100" as="targetPoint" />
            <Array as="points">
              <mxPoint x="30" y="100" />
            </Array>
          </mxGeometry>
        </mxCell>
        <mxCell id="sZKfOWtP_SYuCD7-VU7d-19" style="edgeStyle=orthogonalEdgeStyle;rounded=0;orthogonalLoop=1;jettySize=auto;html=1;exitX=1;exitY=0.5;exitDx=0;exitDy=0;entryX=0.5;entryY=0;entryDx=0;entryDy=0;fontSize=9;curved=1;strokeWidth=3;strokeColor=#FF0000;" edge="1" parent="1" source="sZKfOWtP_SYuCD7-VU7d-2" target="sZKfOWtP_SYuCD7-VU7d-3">
          <mxGeometry relative="1" as="geometry" />
        </mxCell>
        <mxCell id="sZKfOWtP_SYuCD7-VU7d-2" value="&lt;b&gt;Connect Handler&lt;/b&gt;" style="rounded=0;whiteSpace=wrap;html=1;fillColor=#ffe6cc;strokeColor=#FF0000;" vertex="1" parent="1">
          <mxGeometry x="300" y="90" width="80" height="50" as="geometry" />
        </mxCell>
        <mxCell id="sZKfOWtP_SYuCD7-VU7d-20" style="edgeStyle=orthogonalEdgeStyle;curved=1;rounded=0;orthogonalLoop=1;jettySize=auto;html=1;exitX=0;exitY=0.5;exitDx=0;exitDy=0;entryX=0;entryY=0.5;entryDx=0;entryDy=0;fontSize=9;strokeWidth=3;strokeColor=#FF0000;" edge="1" parent="1" source="sZKfOWtP_SYuCD7-VU7d-3" target="sZKfOWtP_SYuCD7-VU7d-14">
          <mxGeometry relative="1" as="geometry">
            <Array as="points">
              <mxPoint x="90" y="197" />
              <mxPoint x="90" y="285" />
            </Array>
          </mxGeometry>
        </mxCell>
        <mxCell id="sZKfOWtP_SYuCD7-VU7d-26" style="edgeStyle=orthogonalEdgeStyle;curved=1;rounded=0;orthogonalLoop=1;jettySize=auto;html=1;exitX=1;exitY=0.5;exitDx=0;exitDy=0;entryX=0.75;entryY=0;entryDx=0;entryDy=0;fontSize=9;" edge="1" parent="1" source="sZKfOWtP_SYuCD7-VU7d-3" target="sZKfOWtP_SYuCD7-VU7d-24">
          <mxGeometry relative="1" as="geometry" />
        </mxCell>
        <mxCell id="sZKfOWtP_SYuCD7-VU7d-27" style="edgeStyle=orthogonalEdgeStyle;curved=1;rounded=0;orthogonalLoop=1;jettySize=auto;html=1;exitX=1;exitY=0.25;exitDx=0;exitDy=0;entryX=0;entryY=0.5;entryDx=0;entryDy=0;fontSize=9;" edge="1" parent="1" source="sZKfOWtP_SYuCD7-VU7d-3" target="sZKfOWtP_SYuCD7-VU7d-25">
          <mxGeometry relative="1" as="geometry" />
        </mxCell>
        <mxCell id="sZKfOWtP_SYuCD7-VU7d-3" value="&lt;b&gt;Modified TLS transport socket&lt;br&gt;（bumping）&lt;br&gt;&lt;/b&gt;" style="rounded=1;whiteSpace=wrap;html=1;fillColor=#ffe6cc;strokeColor=#FF0000;" vertex="1" parent="1">
          <mxGeometry x="390" y="160" width="125" height="74" as="geometry" />
        </mxCell>
        <mxCell id="sZKfOWtP_SYuCD7-VU7d-21" style="edgeStyle=orthogonalEdgeStyle;curved=1;rounded=0;orthogonalLoop=1;jettySize=auto;html=1;exitX=1;exitY=0.5;exitDx=0;exitDy=0;entryX=0;entryY=0.5;entryDx=0;entryDy=0;fontSize=9;" edge="1" parent="1" source="sZKfOWtP_SYuCD7-VU7d-14" target="sZKfOWtP_SYuCD7-VU7d-15">
          <mxGeometry relative="1" as="geometry" />
        </mxCell>
        <mxCell id="sZKfOWtP_SYuCD7-VU7d-14" value="" style="rounded=0;whiteSpace=wrap;html=1;strokeColor=#d79b00;fillColor=#ffe6cc;" vertex="1" parent="1">
          <mxGeometry x="120" y="260" width="70" height="50" as="geometry" />
        </mxCell>
        <mxCell id="sZKfOWtP_SYuCD7-VU7d-22" style="edgeStyle=orthogonalEdgeStyle;curved=1;rounded=0;orthogonalLoop=1;jettySize=auto;html=1;exitX=1;exitY=0.5;exitDx=0;exitDy=0;entryX=0;entryY=0.5;entryDx=0;entryDy=0;fontSize=9;" edge="1" parent="1" source="sZKfOWtP_SYuCD7-VU7d-15" target="sZKfOWtP_SYuCD7-VU7d-16">
          <mxGeometry relative="1" as="geometry" />
        </mxCell>
        <mxCell id="sZKfOWtP_SYuCD7-VU7d-15" value="" style="rounded=0;whiteSpace=wrap;html=1;strokeColor=#d79b00;fillColor=#ffe6cc;" vertex="1" parent="1">
          <mxGeometry x="210" y="260" width="70" height="50" as="geometry" />
        </mxCell>
        <mxCell id="sZKfOWtP_SYuCD7-VU7d-16" value="&lt;b&gt;HCM&lt;br&gt;&amp;nbsp; &amp;nbsp;&lt;/b&gt;-&amp;nbsp;&lt;font style=&quot;font-size: 9px&quot;&gt;http wasm filter 1&lt;br&gt;&amp;nbsp; &amp;nbsp; -&amp;nbsp; http wasm filter 2&lt;br&gt;&lt;/font&gt;" style="rounded=0;whiteSpace=wrap;html=1;strokeColor=#d79b00;fillColor=#ffe6cc;align=left;verticalAlign=top;" vertex="1" parent="1">
          <mxGeometry x="300" y="260" width="90" height="50" as="geometry" />
        </mxCell>
        <mxCell id="sZKfOWtP_SYuCD7-VU7d-17" value="&lt;b&gt;&lt;font style=&quot;font-size: 14px&quot;&gt;Listener Filter chain&lt;/font&gt;&lt;/b&gt;" style="text;html=1;strokeColor=none;fillColor=none;align=center;verticalAlign=middle;whiteSpace=wrap;rounded=0;" vertex="1" parent="1">
          <mxGeometry x="150" y="150" width="140" height="30" as="geometry" />
        </mxCell>
        <mxCell id="sZKfOWtP_SYuCD7-VU7d-18" value="&lt;b&gt;&lt;font style=&quot;font-size: 14px&quot;&gt;Network Filter chain&lt;/font&gt;&lt;/b&gt;" style="text;html=1;strokeColor=none;fillColor=none;align=center;verticalAlign=middle;whiteSpace=wrap;rounded=0;" vertex="1" parent="1">
          <mxGeometry x="150" y="220" width="140" height="30" as="geometry" />
        </mxCell>
        <mxCell id="sZKfOWtP_SYuCD7-VU7d-28" style="edgeStyle=orthogonalEdgeStyle;curved=1;rounded=0;orthogonalLoop=1;jettySize=auto;html=1;exitX=0.25;exitY=1;exitDx=0;exitDy=0;entryX=0.5;entryY=1;entryDx=0;entryDy=0;fontSize=9;" edge="1" parent="1" source="sZKfOWtP_SYuCD7-VU7d-24" target="sZKfOWtP_SYuCD7-VU7d-3">
          <mxGeometry relative="1" as="geometry" />
        </mxCell>
        <mxCell id="sZKfOWtP_SYuCD7-VU7d-24" value="Local CA (PoC)" style="rounded=1;whiteSpace=wrap;html=1;fontSize=9;strokeColor=#000000;" vertex="1" parent="1">
          <mxGeometry x="480" y="225" width="80" height="25" as="geometry" />
        </mxCell>
        <mxCell id="sZKfOWtP_SYuCD7-VU7d-31" style="edgeStyle=orthogonalEdgeStyle;curved=1;rounded=0;orthogonalLoop=1;jettySize=auto;html=1;exitX=0.25;exitY=0;exitDx=0;exitDy=0;entryX=0.75;entryY=0;entryDx=0;entryDy=0;fontSize=12;" edge="1" parent="1" source="sZKfOWtP_SYuCD7-VU7d-25" target="sZKfOWtP_SYuCD7-VU7d-3">
          <mxGeometry relative="1" as="geometry" />
        </mxCell>
        <mxCell id="sZKfOWtP_SYuCD7-VU7d-25" value="external CA" style="rounded=1;whiteSpace=wrap;html=1;fontSize=9;strokeColor=#000000;" vertex="1" parent="1">
          <mxGeometry x="640" y="150" width="80" height="25" as="geometry" />
        </mxCell>
        <mxCell id="sZKfOWtP_SYuCD7-VU7d-29" value="&lt;font style=&quot;font-size: 12px&quot;&gt;CSR&lt;/font&gt;" style="text;html=1;strokeColor=none;fillColor=none;align=center;verticalAlign=middle;whiteSpace=wrap;rounded=0;fontSize=9;" vertex="1" parent="1">
          <mxGeometry x="528" y="150" width="60" height="30" as="geometry" />
        </mxCell>
        <mxCell id="sZKfOWtP_SYuCD7-VU7d-30" value="&lt;font style=&quot;font-size: 12px&quot;&gt;CSR&lt;/font&gt;" style="text;html=1;strokeColor=none;fillColor=none;align=center;verticalAlign=middle;whiteSpace=wrap;rounded=0;fontSize=9;" vertex="1" parent="1">
          <mxGeometry x="528" y="190" width="60" height="30" as="geometry" />
        </mxCell>
        <mxCell id="sZKfOWtP_SYuCD7-VU7d-32" value="issued certs" style="text;html=1;strokeColor=none;fillColor=none;align=center;verticalAlign=middle;whiteSpace=wrap;rounded=0;fontSize=12;" vertex="1" parent="1">
          <mxGeometry x="528" y="90" width="60" height="30" as="geometry" />
        </mxCell>
        <mxCell id="sZKfOWtP_SYuCD7-VU7d-33" value="issued certs" style="text;html=1;strokeColor=none;fillColor=none;align=center;verticalAlign=middle;whiteSpace=wrap;rounded=0;fontSize=12;" vertex="1" parent="1">
          <mxGeometry x="450" y="270" width="60" height="30" as="geometry" />
        </mxCell>
      </root>
    </mxGraphModel>
  </diagram>
</mxfile>
